<mxfile host="Electron" modified="2024-07-17T11:51:56.554Z" agent="Mozilla/5.0 (Windows NT 10.0; Win64; x64) AppleWebKit/537.36 (KHTML, like Gecko) draw.io/24.6.4 Chrome/124.0.6367.207 Electron/30.0.6 Safari/537.36" etag="3ZKpwoFl_nmY-dD-5bY0" version="24.6.4" type="device">
  <diagram name="Page-1" id="-H_mtQnk-PTXWXPvYvuk">
    <mxGraphModel dx="1434" dy="844" grid="1" gridSize="10" guides="1" tooltips="1" connect="1" arrows="1" fold="1" page="1" pageScale="1" pageWidth="1169" pageHeight="827" math="0" shadow="0">
      <root>
        <mxCell id="0" />
        <mxCell id="1" parent="0" />
        <mxCell id="I7AGvwmO10FIiTokBapH-21" style="rounded=0;orthogonalLoop=1;jettySize=auto;html=1;entryX=0;entryY=0.5;entryDx=0;entryDy=0;dashed=1;endArrow=none;endFill=0;" parent="1" edge="1">
          <mxGeometry relative="1" as="geometry">
            <mxPoint x="350" y="595.5" as="sourcePoint" />
            <mxPoint x="437" y="595.5" as="targetPoint" />
          </mxGeometry>
        </mxCell>
        <mxCell id="I7AGvwmO10FIiTokBapH-5" value="" style="rounded=0;whiteSpace=wrap;html=1;" parent="1" vertex="1">
          <mxGeometry x="110" y="489" width="240" height="191" as="geometry" />
        </mxCell>
        <mxCell id="LtI2vMHK96WIChalquO4-7" style="edgeStyle=orthogonalEdgeStyle;rounded=0;orthogonalLoop=1;jettySize=auto;html=1;" parent="1" source="zA23MoTUsTF4_91t8viU-2" target="LtI2vMHK96WIChalquO4-1" edge="1">
          <mxGeometry relative="1" as="geometry" />
        </mxCell>
        <mxCell id="LtI2vMHK96WIChalquO4-8" style="edgeStyle=orthogonalEdgeStyle;rounded=0;orthogonalLoop=1;jettySize=auto;html=1;" parent="1" source="zA23MoTUsTF4_91t8viU-2" target="LtI2vMHK96WIChalquO4-2" edge="1">
          <mxGeometry relative="1" as="geometry" />
        </mxCell>
        <mxCell id="zA23MoTUsTF4_91t8viU-2" value="replica-set" style="shape=cylinder3;whiteSpace=wrap;html=1;boundedLbl=1;backgroundOutline=1;size=15;" parent="1" vertex="1">
          <mxGeometry x="180" y="500" width="100" height="60" as="geometry" />
        </mxCell>
        <mxCell id="I7AGvwmO10FIiTokBapH-15" style="edgeStyle=orthogonalEdgeStyle;rounded=0;orthogonalLoop=1;jettySize=auto;html=1;" parent="1" source="zA23MoTUsTF4_91t8viU-3" target="I7AGvwmO10FIiTokBapH-13" edge="1">
          <mxGeometry relative="1" as="geometry" />
        </mxCell>
        <mxCell id="zA23MoTUsTF4_91t8viU-3" value="драйвер" style="rounded=1;whiteSpace=wrap;html=1;" parent="1" vertex="1">
          <mxGeometry x="350" y="210" width="120" height="60" as="geometry" />
        </mxCell>
        <mxCell id="I7AGvwmO10FIiTokBapH-6" value="shard 1" style="text;html=1;align=center;verticalAlign=middle;resizable=0;points=[];autosize=1;strokeColor=none;fillColor=none;" parent="1" vertex="1">
          <mxGeometry x="200" y="500" width="60" height="30" as="geometry" />
        </mxCell>
        <mxCell id="I7AGvwmO10FIiTokBapH-7" value="" style="rounded=0;whiteSpace=wrap;html=1;" parent="1" vertex="1">
          <mxGeometry x="437" y="489" width="253" height="191" as="geometry" />
        </mxCell>
        <mxCell id="I7AGvwmO10FIiTokBapH-8" value="replica-set" style="shape=cylinder3;whiteSpace=wrap;html=1;boundedLbl=1;backgroundOutline=1;size=15;" parent="1" vertex="1">
          <mxGeometry x="517.25" y="500" width="101.5" height="60" as="geometry" />
        </mxCell>
        <mxCell id="I7AGvwmO10FIiTokBapH-10" value="shard 2" style="text;html=1;align=center;verticalAlign=middle;resizable=0;points=[];autosize=1;strokeColor=none;fillColor=none;" parent="1" vertex="1">
          <mxGeometry x="538" y="500" width="60" height="30" as="geometry" />
        </mxCell>
        <mxCell id="I7AGvwmO10FIiTokBapH-16" style="edgeStyle=orthogonalEdgeStyle;rounded=0;orthogonalLoop=1;jettySize=auto;html=1;" parent="1" source="I7AGvwmO10FIiTokBapH-13" target="I7AGvwmO10FIiTokBapH-5" edge="1">
          <mxGeometry relative="1" as="geometry" />
        </mxCell>
        <mxCell id="I7AGvwmO10FIiTokBapH-17" style="edgeStyle=orthogonalEdgeStyle;rounded=0;orthogonalLoop=1;jettySize=auto;html=1;entryX=0.5;entryY=0;entryDx=0;entryDy=0;" parent="1" source="I7AGvwmO10FIiTokBapH-13" target="I7AGvwmO10FIiTokBapH-7" edge="1">
          <mxGeometry relative="1" as="geometry" />
        </mxCell>
        <mxCell id="I7AGvwmO10FIiTokBapH-13" value="mongos" style="rounded=1;whiteSpace=wrap;html=1;" parent="1" vertex="1">
          <mxGeometry x="350" y="325" width="120" height="60" as="geometry" />
        </mxCell>
        <mxCell id="LtI2vMHK96WIChalquO4-13" style="edgeStyle=orthogonalEdgeStyle;rounded=0;orthogonalLoop=1;jettySize=auto;html=1;" parent="1" source="I7AGvwmO10FIiTokBapH-14" target="I7AGvwmO10FIiTokBapH-13" edge="1">
          <mxGeometry relative="1" as="geometry" />
        </mxCell>
        <mxCell id="I7AGvwmO10FIiTokBapH-14" value="configSrv" style="rounded=1;whiteSpace=wrap;html=1;" parent="1" vertex="1">
          <mxGeometry x="560" y="325" width="120" height="60" as="geometry" />
        </mxCell>
        <mxCell id="I7AGvwmO10FIiTokBapH-22" style="edgeStyle=orthogonalEdgeStyle;rounded=0;orthogonalLoop=1;jettySize=auto;html=1;entryX=-0.007;entryY=0.626;entryDx=0;entryDy=0;entryPerimeter=0;exitX=1;exitY=0.626;exitDx=0;exitDy=0;exitPerimeter=0;endArrow=none;endFill=0;dashed=1;" parent="1" edge="1">
          <mxGeometry relative="1" as="geometry">
            <mxPoint x="350" y="619.566" as="sourcePoint" />
            <mxPoint x="435.22900000000004" y="619.566" as="targetPoint" />
          </mxGeometry>
        </mxCell>
        <mxCell id="I7AGvwmO10FIiTokBapH-25" style="edgeStyle=orthogonalEdgeStyle;rounded=0;orthogonalLoop=1;jettySize=auto;html=1;entryX=0.5;entryY=0;entryDx=0;entryDy=0;" parent="1" source="I7AGvwmO10FIiTokBapH-24" target="zA23MoTUsTF4_91t8viU-3" edge="1">
          <mxGeometry relative="1" as="geometry" />
        </mxCell>
        <mxCell id="I7AGvwmO10FIiTokBapH-24" value="pymongo-api" style="rounded=1;whiteSpace=wrap;html=1;" parent="1" vertex="1">
          <mxGeometry x="350" y="100" width="120" height="60" as="geometry" />
        </mxCell>
        <mxCell id="LtI2vMHK96WIChalquO4-1" value="master" style="shape=cylinder3;whiteSpace=wrap;html=1;boundedLbl=1;backgroundOutline=1;size=15;" parent="1" vertex="1">
          <mxGeometry x="134" y="600" width="60" height="49" as="geometry" />
        </mxCell>
        <mxCell id="LtI2vMHK96WIChalquO4-2" value="repl.1" style="shape=cylinder3;whiteSpace=wrap;html=1;boundedLbl=1;backgroundOutline=1;size=15;" parent="1" vertex="1">
          <mxGeometry x="200" y="600" width="60" height="49" as="geometry" />
        </mxCell>
        <mxCell id="LtI2vMHK96WIChalquO4-3" value="master" style="shape=cylinder3;whiteSpace=wrap;html=1;boundedLbl=1;backgroundOutline=1;size=15;" parent="1" vertex="1">
          <mxGeometry x="470" y="601" width="60" height="49" as="geometry" />
        </mxCell>
        <mxCell id="LtI2vMHK96WIChalquO4-4" value="repl.2" style="shape=cylinder3;whiteSpace=wrap;html=1;boundedLbl=1;backgroundOutline=1;size=15;" parent="1" vertex="1">
          <mxGeometry x="265" y="600" width="60" height="49" as="geometry" />
        </mxCell>
        <mxCell id="LtI2vMHK96WIChalquO4-5" value="repl.1" style="shape=cylinder3;whiteSpace=wrap;html=1;boundedLbl=1;backgroundOutline=1;size=15;" parent="1" vertex="1">
          <mxGeometry x="538" y="601" width="60" height="49" as="geometry" />
        </mxCell>
        <mxCell id="LtI2vMHK96WIChalquO4-6" value="repl.2" style="shape=cylinder3;whiteSpace=wrap;html=1;boundedLbl=1;backgroundOutline=1;size=15;" parent="1" vertex="1">
          <mxGeometry x="605" y="601" width="60" height="49" as="geometry" />
        </mxCell>
        <mxCell id="LtI2vMHK96WIChalquO4-9" style="edgeStyle=orthogonalEdgeStyle;rounded=0;orthogonalLoop=1;jettySize=auto;html=1;entryX=0.5;entryY=0;entryDx=0;entryDy=0;entryPerimeter=0;" parent="1" source="zA23MoTUsTF4_91t8viU-2" target="LtI2vMHK96WIChalquO4-4" edge="1">
          <mxGeometry relative="1" as="geometry" />
        </mxCell>
        <mxCell id="LtI2vMHK96WIChalquO4-10" style="edgeStyle=orthogonalEdgeStyle;rounded=0;orthogonalLoop=1;jettySize=auto;html=1;entryX=0.5;entryY=0;entryDx=0;entryDy=0;entryPerimeter=0;" parent="1" source="I7AGvwmO10FIiTokBapH-8" target="LtI2vMHK96WIChalquO4-3" edge="1">
          <mxGeometry relative="1" as="geometry" />
        </mxCell>
        <mxCell id="LtI2vMHK96WIChalquO4-11" style="edgeStyle=orthogonalEdgeStyle;rounded=0;orthogonalLoop=1;jettySize=auto;html=1;entryX=0.5;entryY=0;entryDx=0;entryDy=0;entryPerimeter=0;" parent="1" source="I7AGvwmO10FIiTokBapH-8" target="LtI2vMHK96WIChalquO4-5" edge="1">
          <mxGeometry relative="1" as="geometry" />
        </mxCell>
        <mxCell id="LtI2vMHK96WIChalquO4-12" style="edgeStyle=orthogonalEdgeStyle;rounded=0;orthogonalLoop=1;jettySize=auto;html=1;entryX=0.5;entryY=0;entryDx=0;entryDy=0;entryPerimeter=0;" parent="1" source="I7AGvwmO10FIiTokBapH-8" target="LtI2vMHK96WIChalquO4-6" edge="1">
          <mxGeometry relative="1" as="geometry" />
        </mxCell>
      </root>
    </mxGraphModel>
  </diagram>
</mxfile>
